<?xml version="1.0" encoding="utf-8"?>
<!-- Generator: Adobe Illustrator 23.0.2, SVG Export Plug-In . SVG Version: 6.00 Build 0)  -->
<svg version="1.1" id="Capa_1" xmlns="http://www.w3.org/2000/svg" xmlns:xlink="http://www.w3.org/1999/xlink" x="0px" y="0px"
	 viewBox="0 0 512 512" style="enable-background:new 0 0 512 512;" xml:space="preserve">
<style type="text/css">
	.st0{fill:#64C4ED;}
</style>
<rect x="124.3" y="381.1" class="st0" width="38.5" height="123.4"/>
<rect x="347.2" y="381.1" class="st0" width="38.5" height="123.4"/>
<path class="st0" d="M410.4,417.5H99.6c-7.8,0-14.1-6.3-14.1-14.1v-50.8h338.9v50.8C424.4,411.2,418.2,417.5,410.4,417.5z"/>
<path class="st0" d="M414.5,381.1h-319V61.8c0-30,24.3-54.3,54.3-54.3h210.3c30,0,54.3,24.3,54.3,54.3V381.1L414.5,381.1z"/>
<path class="st0" d="M136.2,381.1H80.6c-12.1,0-21.9-9.8-21.9-21.9V244.8h77.5V381.1z"/>
<path class="st0" d="M429.4,381.1h-55.6V244.8h77.5v114.4C451.2,371.4,441.5,381.1,429.4,381.1z"/>
<path class="st0" d="M147.2,256H47.9c-4.4,0-7.9-3.5-7.9-7.9v-20.3c0-4.4,3.5-7.9,7.9-7.9h99.3c4.4,0,7.9,3.5,7.9,7.9v20.3
	C155,252.5,151.5,256,147.2,256z"/>
<path class="st0" d="M47.9,238c-4.4,0-7.9-3.5-7.9-7.9v18c0,4.4,3.5,7.9,7.9,7.9h99.3c4.4,0,7.9-3.5,7.9-7.9v-18
	c0,4.4-3.5,7.9-7.9,7.9"/>
<path class="st0" d="M464.1,256.1h-99.3c-4.4,0-7.9-3.5-7.9-7.9v-20.3c0-4.4,3.5-7.9,7.9-7.9h99.3c4.4,0,7.9,3.5,7.9,7.9v20.3
	C472,252.5,468.5,256.1,464.1,256.1z"/>
<path d="M202.4,91.7h-6.9v-6.9c0-4.1-3.4-7.5-7.5-7.5s-7.5,3.4-7.5,7.5v6.9h-6.9c-4.1,0-7.5,3.4-7.5,7.5s3.4,7.5,7.5,7.5h6.9v6.9
	c0,4.1,3.4,7.5,7.5,7.5s7.5-3.4,7.5-7.5v-6.9h6.9c4.1,0,7.5-3.4,7.5-7.5S206.5,91.7,202.4,91.7z"/>
<path d="M309.6,106.7h6.9v6.9c0,4.1,3.4,7.5,7.5,7.5s7.5-3.4,7.5-7.5v-6.9h6.9c4.1,0,7.5-3.4,7.5-7.5s-3.4-7.5-7.5-7.5h-6.9v-6.9
	c0-4.1-3.4-7.5-7.5-7.5s-7.5,3.4-7.5,7.5v6.9h-6.9c-4.1,0-7.5,3.4-7.5,7.5S305.5,106.7,309.6,106.7z"/>
<path d="M202.4,194.8h-6.9v-6.9c0-4.1-3.4-7.5-7.5-7.5s-7.5,3.4-7.5,7.5v6.9h-6.9c-4.1,0-7.5,3.4-7.5,7.5s3.4,7.5,7.5,7.5h6.9v6.9
	c0,4.1,3.4,7.5,7.5,7.5s7.5-3.4,7.5-7.5v-6.9h6.9c4.1,0,7.5-3.4,7.5-7.5S206.5,194.8,202.4,194.8z"/>
<path d="M338.4,194.8h-6.9v-6.9c0-4.1-3.4-7.5-7.5-7.5s-7.5,3.4-7.5,7.5v6.9h-6.9c-4.1,0-7.5,3.4-7.5,7.5s3.4,7.5,7.5,7.5h6.9v6.9
	c0,4.1,3.4,7.5,7.5,7.5s7.5-3.4,7.5-7.5v-6.9h6.9c4.1,0,7.5-3.4,7.5-7.5S342.6,194.8,338.4,194.8z"/>
<path d="M464.1,212.5h-99.3c-8.5,0-15.4,6.9-15.4,15.4v20.3c0,8.5,6.9,15.4,15.4,15.4h1.4v34c-6.7-5.3-15.1-8.4-24.2-8.4H168
	c-9.1,0-17.6,3.2-24.2,8.4v-34h3.4c8.5,0,15.4-6.9,15.4-15.4v-20.3c0-8.5-6.9-15.4-15.4-15.4H47.9c-8.5,0-15.4,6.9-15.4,15.4v20.3
	c0,8.5,6.9,15.4,15.4,15.4h3.4v95.8c0,15.3,11.8,27.9,26.8,29.2v15c0,11.9,9.7,21.6,21.6,21.6h17.2V497h-10.7
	c-4.1,0-7.5,3.4-7.5,7.5s3.4,7.5,7.5,7.5h75c4.1,0,7.5-3.4,7.5-7.5s-3.4-7.5-7.5-7.5h-10.7V425h169.4V497H329
	c-4.1,0-7.5,3.4-7.5,7.5s3.4,7.5,7.5,7.5h75c4.1,0,7.5-3.4,7.5-7.5s-3.4-7.5-7.5-7.5h-10.7V425h17.2c11.9,0,21.6-9.7,21.6-21.6v-15
	c15-1.3,26.8-13.9,26.8-29.2v-95.7h5.4c8.5,0,15.4-6.9,15.4-15.4v-20.3C479.5,219.4,472.6,212.5,464.1,212.5z M168,304.1h174
	c13.4,0,24.2,10.9,24.2,24.2v45.3H143.8v-45.3C143.8,315,154.6,304.1,168,304.1z M58.8,248.5H47.9c-0.2,0-0.4-0.2-0.4-0.4v-20.3
	c0-0.2,0.2-0.4,0.4-0.4h99.3c0.2,0,0.4,0.2,0.4,0.4v20.3c0,0.2-0.2,0.4-0.4,0.4h-10.9H58.8z M80.6,373.6c-7.9,0-14.4-6.4-14.4-14.4
	v-95.8h62.5v64.9v45.3H85.6L80.6,373.6L80.6,373.6z M155.3,497h-23.5V425h23.5V497z M378.2,497h-23.5V425h23.5V497z M416.9,403.5
	c0,3.6-2.9,6.5-6.5,6.5h-24.7h-38.5H162.8h-38.5H99.6c-3.6,0-6.5-2.9-6.5-6.5v-14.8h43.2h237.5h43.2L416.9,403.5L416.9,403.5z
	 M443.7,359.3c0,7.9-6.4,14.4-14.4,14.4h-4.9h-43.2v-45.3v-64.8h62.5L443.7,359.3L443.7,359.3z M464.5,248.2c0,0.2-0.2,0.4-0.4,0.4
	h-12.9h-77.5h-8.9c-0.2,0-0.4-0.2-0.4-0.4v-20.3c0-0.2,0.2-0.4,0.4-0.4h99.3c0.2,0,0.4,0.2,0.4,0.4L464.5,248.2L464.5,248.2z"/>
<path d="M95.5,192.3c4.1,0,7.5-3.4,7.5-7.5v-123C103,36,124,15,149.9,15h210.3C386,15,407,36,407,61.9l0.6,123
	c0,4.1,3.4,7.5,7.5,7.5c0,0,0,0,0,0c4.1,0,7.5-3.4,7.5-7.5L422,61.8C422,27.7,394.3,0,360.2,0H149.9C115.8,0,88,27.7,88,61.8v123
	C88,189,91.4,192.3,95.5,192.3z"/>
</svg>
