<?xml version="1.0" encoding="iso-8859-1"?>
<!-- Generator: Adobe Illustrator 19.0.0, SVG Export Plug-In . SVG Version: 6.00 Build 0)  -->
<svg version="1.1" id="Capa_1" xmlns="http://www.w3.org/2000/svg" xmlns:xlink="http://www.w3.org/1999/xlink" x="0px" y="0px"
	 viewBox="0 0 512 512" style="enable-background:new 0 0 512 512;" xml:space="preserve">
<rect x="122.37" y="379.19" style="fill:#1E608B;" width="39.06" height="125.19"/>
<rect x="141.9" y="379.19" style="fill:#135370;" width="19.528" height="125.19"/>
<rect x="348.57" y="379.19" style="fill:#1E608B;" width="39.06" height="125.19"/>
<rect x="368.1" y="379.19" style="fill:#135370;" width="19.528" height="125.19"/>
<path style="fill:#1E608B;" d="M412.693,416.135H97.303c-7.876,0-14.261-6.385-14.261-14.261v-51.59h343.912v51.59
	C426.954,409.75,420.569,416.135,412.693,416.135z"/>
<path style="fill:#EF4A50;" d="M416.867,379.19H93.129V55.147C93.129,24.69,117.819,0,148.276,0H361.72
	c30.457,0,55.147,24.69,55.147,55.147V379.19z"/>
<path style="fill:#DD3753;" d="M361.72,0h-53.423c30.457,0,55.147,24.69,55.147,55.147V379.19h53.423V55.147
	C416.867,24.69,392.177,0,361.72,0z"/>
<path style="fill:#EF4A50;" d="M134.467,379.19H78.033c-12.25,0-22.18-9.93-22.18-22.18V240.863h78.614V379.19z"/>
<rect x="95.16" y="240.86" style="fill:#DD3753;" width="39.31" height="138.33"/>
<path style="fill:#EF4A50;" d="M431.964,379.19H375.53V240.863h78.614V357.01C454.144,369.259,444.213,379.19,431.964,379.19z"/>
<g>
	<path style="fill:#DD3753;" d="M414.837,240.863V357.01c0,12.25-9.93,22.18-22.18,22.18h39.307c12.25,0,22.18-9.93,22.18-22.18
		V240.863H414.837z"/>
	<path style="fill:#DD3753;" d="M375.53,379.19H134.467v-53.541c0-17.792,14.423-32.215,32.215-32.215h176.632
		c17.792,0,32.215,14.423,32.215,32.215v53.541H375.53z"/>
</g>
<g>
	<path style="fill:#1E608B;" d="M179.947,496.768h-76.096c-4.207,0-7.616,3.41-7.616,7.616s3.41,7.616,7.616,7.616h76.096
		c4.207,0,7.616-3.41,7.616-7.616S184.154,496.768,179.947,496.768z"/>
	<path style="fill:#1E608B;" d="M406.145,496.768h-76.097c-4.207,0-7.616,3.41-7.616,7.616s3.409,7.616,7.616,7.616h76.097
		c4.207,0,7.616-3.41,7.616-7.616S410.352,496.768,406.145,496.768z"/>
</g>
<path style="fill:#EF4A50;" d="M145.551,252.192H44.768c-4.417,0-7.997-3.58-7.997-7.997v-20.618c0-4.417,3.58-7.997,7.997-7.997
	h100.783c4.417,0,7.997,3.58,7.997,7.997v20.618C153.548,248.611,149.968,252.192,145.551,252.192z"/>
<path style="fill:#DD3753;" d="M145.551,233.886H44.768c-4.417,0-7.997-3.58-7.997-7.997v18.306c0,4.417,3.58,7.997,7.997,7.997
	h100.783c4.417,0,7.997-3.58,7.997-7.997v-18.306C153.548,230.305,149.968,233.886,145.551,233.886z"/>
<path style="fill:#EF4A50;" d="M467.232,252.267H366.449c-4.417,0-7.997-3.58-7.997-7.997v-20.618c0-4.417,3.58-7.997,7.997-7.997
	h100.783c4.417,0,7.997,3.58,7.997,7.997v20.618C475.229,248.686,471.649,252.267,467.232,252.267z"/>
<path style="fill:#DD3753;" d="M467.232,233.96H366.449c-4.417,0-7.997-3.58-7.997-7.997v18.307c0,4.417,3.58,7.997,7.997,7.997
	h100.783c4.417,0,7.997-3.581,7.997-7.997v-18.307C475.229,230.38,471.649,233.96,467.232,233.96z"/>
<path style="fill:#EF5460;" d="M343.314,293.433H166.682c-16.083,0-29.411,11.786-31.823,27.192
	c28.053,9.544,71.882,15.686,121.141,15.686c48.153,0,91.114-5.87,119.225-15.049C373.084,305.547,359.618,293.433,343.314,293.433z
	"/>
<g>
	<path style="fill:#DD3753;" d="M201.575,85.452h-7.01v-7.01c0-4.206-3.409-7.616-7.616-7.616s-7.616,3.41-7.616,7.616v7.01h-7.01
		c-4.207,0-7.616,3.41-7.616,7.616s3.409,7.616,7.616,7.616h7.01v7.011c0,4.206,3.409,7.616,7.616,7.616s7.616-3.41,7.616-7.616
		v-7.011h7.01c4.207,0,7.616-3.41,7.616-7.616S205.782,85.452,201.575,85.452z"/>
	<path style="fill:#DD3753;" d="M310.425,100.683h7.01v7.011c0,4.206,3.409,7.616,7.616,7.616s7.616-3.41,7.616-7.616v-7.011h7.01
		c4.207,0,7.616-3.41,7.616-7.616s-3.409-7.616-7.616-7.616h-7.01v-7.01c0-4.206-3.409-7.616-7.616-7.616s-7.616,3.41-7.616,7.616
		v7.01h-7.01c-4.207,0-7.616,3.41-7.616,7.616S306.218,100.683,310.425,100.683z"/>
	<path style="fill:#DD3753;" d="M201.575,190.059h-7.01v-7.01c0-4.206-3.409-7.616-7.616-7.616s-7.616,3.41-7.616,7.616v7.01h-7.01
		c-4.207,0-7.616,3.41-7.616,7.616s3.409,7.616,7.616,7.616h7.01v7.01c0,4.206,3.409,7.616,7.616,7.616s7.616-3.41,7.616-7.616
		v-7.01h7.01c4.207,0,7.616-3.41,7.616-7.616S205.782,190.059,201.575,190.059z"/>
	<path style="fill:#DD3753;" d="M339.677,190.059h-7.01v-7.01c0-4.206-3.409-7.616-7.616-7.616s-7.616,3.41-7.616,7.616v7.01h-7.01
		c-4.207,0-7.616,3.41-7.616,7.616s3.409,7.616,7.616,7.616h7.01v7.01c0,4.206,3.409,7.616,7.616,7.616s7.616-3.41,7.616-7.616
		v-7.01h7.01c4.207,0,7.616-3.41,7.616-7.616S343.883,190.059,339.677,190.059z"/>
</g>
<g>
</g>
<g>
</g>
<g>
</g>
<g>
</g>
<g>
</g>
<g>
</g>
<g>
</g>
<g>
</g>
<g>
</g>
<g>
</g>
<g>
</g>
<g>
</g>
<g>
</g>
<g>
</g>
<g>
</g>
</svg>
