<?xml version="1.0" encoding="utf-8"?>
<!-- Generator: Adobe Illustrator 23.0.2, SVG Export Plug-In . SVG Version: 6.00 Build 0)  -->
<svg version="1.1" xmlns="http://www.w3.org/2000/svg" xmlns:xlink="http://www.w3.org/1999/xlink" x="0px" y="0px"
	 viewBox="0 0 512 512" style="enable-background:new 0 0 512 512;" xml:space="preserve">
<style type="text/css">
	.st0{display:none;}
	.st1{display:inline;fill:#1E608B;}
	.st2{display:inline;fill:#135370;}
	.st3{display:inline;fill:#EF4A50;}
	.st4{display:inline;fill:#DD3753;}
	.st5{display:inline;}
	.st6{fill:#DD3753;}
	.st7{display:inline;fill:#EF5460;}
	.st8{fill:#727272;}
	.st9{fill:#444444;}
	.st10{fill:#FFFFFF;}
	.st11{fill:#494949;}
</style>
<g id="Capa_1" class="st0">
	<rect x="124.3" y="381.1" class="st1" width="38.5" height="123.4"/>
	<rect x="143.6" y="381.1" class="st2" width="19.2" height="123.4"/>
	<rect x="347.2" y="381.1" class="st1" width="38.5" height="123.4"/>
	<rect x="366.4" y="381.1" class="st2" width="19.2" height="123.4"/>
	<path class="st1" d="M410.4,417.5H99.6c-7.8,0-14.1-6.3-14.1-14.1v-50.8h338.9v50.8C424.4,411.2,418.2,417.5,410.4,417.5z"/>
	<path class="st3" d="M414.5,381.1h-319V61.8c0-30,24.3-54.3,54.3-54.3h210.3c30,0,54.3,24.3,54.3,54.3V381.1L414.5,381.1z"/>
	<path class="st4" d="M360.2,7.5h-52.6c30,0,54.3,24.3,54.3,54.3v319.3h52.6V61.8C414.5,31.8,390.2,7.5,360.2,7.5z"/>
	<path class="st3" d="M136.2,381.1H80.6c-12.1,0-21.9-9.8-21.9-21.9V244.8h77.5V381.1z"/>
	<rect x="97.5" y="244.8" class="st4" width="38.7" height="136.3"/>
	<path class="st3" d="M429.4,381.1h-55.6V244.8h77.5v114.4C451.2,371.4,441.5,381.1,429.4,381.1z"/>
	<g class="st5">
		<path class="st6" d="M412.5,244.8v114.4c0,12.1-9.8,21.9-21.9,21.9h38.7c12.1,0,21.9-9.8,21.9-21.9V244.8H412.5z"/>
		<path class="st6" d="M373.8,381.1H136.2v-52.8c0-17.5,14.2-31.7,31.7-31.7h174c17.5,0,31.7,14.2,31.7,31.7L373.8,381.1
			L373.8,381.1L373.8,381.1z"/>
	</g>
	<path class="st3" d="M147.2,256H47.9c-4.4,0-7.9-3.5-7.9-7.9v-20.3c0-4.4,3.5-7.9,7.9-7.9h99.3c4.4,0,7.9,3.5,7.9,7.9v20.3
		C155,252.5,151.5,256,147.2,256z"/>
	<path class="st4" d="M147.2,238H47.9c-4.4,0-7.9-3.5-7.9-7.9v18c0,4.4,3.5,7.9,7.9,7.9h99.3c4.4,0,7.9-3.5,7.9-7.9v-18
		C155,234.4,151.5,238,147.2,238z"/>
	<path class="st3" d="M464.1,256.1h-99.3c-4.4,0-7.9-3.5-7.9-7.9v-20.3c0-4.4,3.5-7.9,7.9-7.9h99.3c4.4,0,7.9,3.5,7.9,7.9v20.3
		C472,252.5,468.5,256.1,464.1,256.1z"/>
	<path class="st4" d="M464.1,238h-99.3c-4.4,0-7.9-3.5-7.9-7.9v18c0,4.4,3.5,7.9,7.9,7.9h99.3c4.4,0,7.9-3.5,7.9-7.9v-18
		C472,234.5,468.5,238,464.1,238z"/>
	<path class="st7" d="M342,296.6H168c-15.8,0-29,11.6-31.4,26.8c27.6,9.4,70.8,15.5,119.4,15.5c47.4,0,89.8-5.8,117.5-14.8
		C371.4,308.6,358.1,296.6,342,296.6z"/>
	<path class="st5" d="M202.4,91.7h-6.9v-6.9c0-4.1-3.4-7.5-7.5-7.5s-7.5,3.4-7.5,7.5v6.9h-6.9c-4.1,0-7.5,3.4-7.5,7.5
		s3.4,7.5,7.5,7.5h6.9v6.9c0,4.1,3.4,7.5,7.5,7.5s7.5-3.4,7.5-7.5v-6.9h6.9c4.1,0,7.5-3.4,7.5-7.5S206.5,91.7,202.4,91.7z"/>
	<path class="st5" d="M309.6,106.7h6.9v6.9c0,4.1,3.4,7.5,7.5,7.5s7.5-3.4,7.5-7.5v-6.9h6.9c4.1,0,7.5-3.4,7.5-7.5s-3.4-7.5-7.5-7.5
		h-6.9v-6.9c0-4.1-3.4-7.5-7.5-7.5s-7.5,3.4-7.5,7.5v6.9h-6.9c-4.1,0-7.5,3.4-7.5,7.5S305.5,106.7,309.6,106.7z"/>
	<path class="st5" d="M202.4,194.8h-6.9v-6.9c0-4.1-3.4-7.5-7.5-7.5s-7.5,3.4-7.5,7.5v6.9h-6.9c-4.1,0-7.5,3.4-7.5,7.5
		s3.4,7.5,7.5,7.5h6.9v6.9c0,4.1,3.4,7.5,7.5,7.5s7.5-3.4,7.5-7.5v-6.9h6.9c4.1,0,7.5-3.4,7.5-7.5S206.5,194.8,202.4,194.8z"/>
	<path class="st5" d="M338.4,194.8h-6.9v-6.9c0-4.1-3.4-7.5-7.5-7.5s-7.5,3.4-7.5,7.5v6.9h-6.9c-4.1,0-7.5,3.4-7.5,7.5
		s3.4,7.5,7.5,7.5h6.9v6.9c0,4.1,3.4,7.5,7.5,7.5s7.5-3.4,7.5-7.5v-6.9h6.9c4.1,0,7.5-3.4,7.5-7.5S342.6,194.8,338.4,194.8z"/>
	<path class="st5" d="M464.1,212.5h-99.3c-8.5,0-15.4,6.9-15.4,15.4v20.3c0,8.5,6.9,15.4,15.4,15.4h1.4v34
		c-6.7-5.3-15.1-8.4-24.2-8.4H168c-9.1,0-17.6,3.2-24.2,8.4v-34h3.4c8.5,0,15.4-6.9,15.4-15.4v-20.3c0-8.5-6.9-15.4-15.4-15.4H47.9
		c-8.5,0-15.4,6.9-15.4,15.4v20.3c0,8.5,6.9,15.4,15.4,15.4h3.4v95.8c0,15.3,11.8,27.9,26.8,29.2v15c0,11.9,9.7,21.6,21.6,21.6h17.2
		V497h-10.7c-4.1,0-7.5,3.4-7.5,7.5s3.4,7.5,7.5,7.5h75c4.1,0,7.5-3.4,7.5-7.5s-3.4-7.5-7.5-7.5h-10.7V425h169.4V497H329
		c-4.1,0-7.5,3.4-7.5,7.5s3.4,7.5,7.5,7.5h75c4.1,0,7.5-3.4,7.5-7.5s-3.4-7.5-7.5-7.5h-10.7V425h17.2c11.9,0,21.6-9.7,21.6-21.6v-15
		c15-1.3,26.8-13.9,26.8-29.2v-95.7h5.4c8.5,0,15.4-6.9,15.4-15.4v-20.3C479.5,219.4,472.6,212.5,464.1,212.5z M168,304.1h174
		c13.4,0,24.2,10.9,24.2,24.2v45.3H143.8v-45.3C143.8,315,154.6,304.1,168,304.1z M58.8,248.5H47.9c-0.2,0-0.4-0.2-0.4-0.4v-20.3
		c0-0.2,0.2-0.4,0.4-0.4h99.3c0.2,0,0.4,0.2,0.4,0.4v20.3c0,0.2-0.2,0.4-0.4,0.4h-10.9H58.8z M80.6,373.6c-7.9,0-14.4-6.4-14.4-14.4
		v-95.8h62.5v64.9v45.3H85.6L80.6,373.6L80.6,373.6z M155.3,497h-23.5V425h23.5V497z M378.2,497h-23.5V425h23.5V497z M416.9,403.5
		c0,3.6-2.9,6.5-6.5,6.5h-24.7h-38.5H162.8h-38.5H99.6c-3.6,0-6.5-2.9-6.5-6.5v-14.8h43.2h237.5h43.2L416.9,403.5L416.9,403.5z
		 M443.7,359.3c0,7.9-6.4,14.4-14.4,14.4h-4.9h-43.2v-45.3v-64.8h62.5L443.7,359.3L443.7,359.3z M464.5,248.2c0,0.2-0.2,0.4-0.4,0.4
		h-12.9h-77.5h-8.9c-0.2,0-0.4-0.2-0.4-0.4v-20.3c0-0.2,0.2-0.4,0.4-0.4h99.3c0.2,0,0.4,0.2,0.4,0.4L464.5,248.2L464.5,248.2z"/>
	<path class="st5" d="M95.5,192.3c4.1,0,7.5-3.4,7.5-7.5v-123C103,36,124,15,149.9,15h210.3C386,15,407,36,407,61.9l0.6,123
		c0,4.1,3.4,7.5,7.5,7.5c0,0,0,0,0,0c4.1,0,7.5-3.4,7.5-7.5L422,61.8C422,27.7,394.3,0,360.2,0H149.9C115.8,0,88,27.7,88,61.8v123
		C88,189,91.4,192.3,95.5,192.3z"/>
</g>
<g id="Capa_2">
	<rect x="124.3" y="381.1" class="st8" width="38.5" height="123.4"/>
	<rect x="347.2" y="381.1" class="st8" width="38.5" height="123.4"/>
	<path class="st8" d="M410.4,417.5H99.6c-7.8,0-14.1-6.3-14.1-14.1v-50.8h338.9v50.8C424.4,411.2,418.2,417.5,410.4,417.5z"/>
	<path class="st8" d="M414.5,381.1h-319V61.8c0-30,24.3-54.3,54.3-54.3h210.3c30,0,54.3,24.3,54.3,54.3V381.1L414.5,381.1z"/>
	<path class="st8" d="M136.2,381.1H80.6c-12.1,0-21.9-9.8-21.9-21.9V244.8h77.5V381.1z"/>
	<path class="st8" d="M429.4,381.1h-55.6V244.8h77.5v114.4C451.2,371.4,441.5,381.1,429.4,381.1z"/>
	<path class="st8" d="M147.2,256H47.9c-4.4,0-7.9-3.5-7.9-7.9v-20.3c0-4.4,3.5-7.9,7.9-7.9h99.3c4.4,0,7.9,3.5,7.9,7.9v20.3
		C155,252.5,151.5,256,147.2,256z"/>
	<path class="st9" d="M147.2,238H47.9c-4.4,0-7.9-3.5-7.9-7.9v18c0,4.4,3.5,7.9,7.9,7.9h99.3c4.4,0,7.9-3.5,7.9-7.9v-18
		C155,234.4,151.5,238,147.2,238z"/>
	<path class="st8" d="M464.1,256.1h-99.3c-4.4,0-7.9-3.5-7.9-7.9v-20.3c0-4.4,3.5-7.9,7.9-7.9h99.3c4.4,0,7.9,3.5,7.9,7.9v20.3
		C472,252.5,468.5,256.1,464.1,256.1z"/>
	<path class="st8" d="M342,296.6H168c-15.8,0-29,11.6-31.4,26.8c27.6,9.4,70.8,15.5,119.4,15.5c47.4,0,89.8-5.8,117.5-14.8
		C371.4,308.6,358.1,296.6,342,296.6z"/>
	<path d="M202.4,91.7h-6.9v-6.9c0-4.1-3.4-7.5-7.5-7.5s-7.5,3.4-7.5,7.5v6.9h-6.9c-4.1,0-7.5,3.4-7.5,7.5s3.4,7.5,7.5,7.5h6.9v6.9
		c0,4.1,3.4,7.5,7.5,7.5s7.5-3.4,7.5-7.5v-6.9h6.9c4.1,0,7.5-3.4,7.5-7.5S206.5,91.7,202.4,91.7z"/>
	<path d="M309.6,106.7h6.9v6.9c0,4.1,3.4,7.5,7.5,7.5s7.5-3.4,7.5-7.5v-6.9h6.9c4.1,0,7.5-3.4,7.5-7.5s-3.4-7.5-7.5-7.5h-6.9v-6.9
		c0-4.1-3.4-7.5-7.5-7.5s-7.5,3.4-7.5,7.5v6.9h-6.9c-4.1,0-7.5,3.4-7.5,7.5S305.5,106.7,309.6,106.7z"/>
	<path d="M202.4,194.8h-6.9v-6.9c0-4.1-3.4-7.5-7.5-7.5s-7.5,3.4-7.5,7.5v6.9h-6.9c-4.1,0-7.5,3.4-7.5,7.5s3.4,7.5,7.5,7.5h6.9v6.9
		c0,4.1,3.4,7.5,7.5,7.5s7.5-3.4,7.5-7.5v-6.9h6.9c4.1,0,7.5-3.4,7.5-7.5S206.5,194.8,202.4,194.8z"/>
	<path d="M338.4,194.8h-6.9v-6.9c0-4.1-3.4-7.5-7.5-7.5s-7.5,3.4-7.5,7.5v6.9h-6.9c-4.1,0-7.5,3.4-7.5,7.5s3.4,7.5,7.5,7.5h6.9v6.9
		c0,4.1,3.4,7.5,7.5,7.5s7.5-3.4,7.5-7.5v-6.9h6.9c4.1,0,7.5-3.4,7.5-7.5S342.6,194.8,338.4,194.8z"/>
	<path d="M464.1,212.5h-99.3c-8.5,0-15.4,6.9-15.4,15.4v20.3c0,8.5,6.9,15.4,15.4,15.4h1.4v34c-6.7-5.3-15.1-8.4-24.2-8.4H168
		c-9.1,0-17.6,3.2-24.2,8.4v-34h3.4c8.5,0,15.4-6.9,15.4-15.4v-20.3c0-8.5-6.9-15.4-15.4-15.4H47.9c-8.5,0-15.4,6.9-15.4,15.4v20.3
		c0,8.5,6.9,15.4,15.4,15.4h3.4v95.8c0,15.3,11.8,27.9,26.8,29.2v15c0,11.9,9.7,21.6,21.6,21.6h17.2V497h-10.7
		c-4.1,0-7.5,3.4-7.5,7.5s3.4,7.5,7.5,7.5h75c4.1,0,7.5-3.4,7.5-7.5s-3.4-7.5-7.5-7.5h-10.7V425h169.4V497H329
		c-4.1,0-7.5,3.4-7.5,7.5s3.4,7.5,7.5,7.5h75c4.1,0,7.5-3.4,7.5-7.5s-3.4-7.5-7.5-7.5h-10.7V425h17.2c11.9,0,21.6-9.7,21.6-21.6v-15
		c15-1.3,26.8-13.9,26.8-29.2v-95.7h5.4c8.5,0,15.4-6.9,15.4-15.4v-20.3C479.5,219.4,472.6,212.5,464.1,212.5z M168,304.1h174
		c13.4,0,24.2,10.9,24.2,24.2v45.3H143.8v-45.3C143.8,315,154.6,304.1,168,304.1z M58.8,248.5H47.9c-0.2,0-0.4-0.2-0.4-0.4v-20.3
		c0-0.2,0.2-0.4,0.4-0.4h99.3c0.2,0,0.4,0.2,0.4,0.4v20.3c0,0.2-0.2,0.4-0.4,0.4h-10.9H58.8z M80.6,373.6c-7.9,0-14.4-6.4-14.4-14.4
		v-95.8h62.5v64.9v45.3H85.6L80.6,373.6L80.6,373.6z M155.3,497h-23.5V425h23.5V497z M378.2,497h-23.5V425h23.5V497z M416.9,403.5
		c0,3.6-2.9,6.5-6.5,6.5h-24.7h-38.5H162.8h-38.5H99.6c-3.6,0-6.5-2.9-6.5-6.5v-14.8h43.2h237.5h43.2L416.9,403.5L416.9,403.5z
		 M443.7,359.3c0,7.9-6.4,14.4-14.4,14.4h-4.9h-43.2v-45.3v-64.8h62.5L443.7,359.3L443.7,359.3z M464.5,248.2c0,0.2-0.2,0.4-0.4,0.4
		h-12.9h-77.5h-8.9c-0.2,0-0.4-0.2-0.4-0.4v-20.3c0-0.2,0.2-0.4,0.4-0.4h99.3c0.2,0,0.4,0.2,0.4,0.4L464.5,248.2L464.5,248.2z"/>
	<path d="M95.5,192.3c4.1,0,7.5-3.4,7.5-7.5v-123C103,36,124,15,149.9,15h210.3C386,15,407,36,407,61.9l0.6,123
		c0,4.1,3.4,7.5,7.5,7.5c0,0,0,0,0,0c4.1,0,7.5-3.4,7.5-7.5L422,61.8C422,27.7,394.3,0,360.2,0H149.9C115.8,0,88,27.7,88,61.8v123
		C88,189,91.4,192.3,95.5,192.3z"/>
	<g>
		<path class="st10" d="M16.1,507.5c-3.7,0-7.5-1.4-10.3-4.3c-5.6-5.7-5.6-14.9,0.1-20.5C10.6,478,476,15.4,478.7,12.8
			c5.7-5.7,14.8-5.7,20.5,0c5.7,5.7,5.7,14.8,0,20.5c-2,2-453.6,450.9-472.8,470C23.5,506.1,19.8,507.5,16.1,507.5z"/>
	</g>
	<g>
		<path class="st11" d="M16.1,499c-1.5,0-3.1-0.6-4.3-1.8c-2.3-2.4-2.3-6.1,0-8.5c4.7-4.7,470.8-467.9,472.8-469.9
			c2.3-2.3,6.1-2.3,8.5,0c2.3,2.3,2.3,6.1,0,8.5c-1.9,1.9-453.6,450.8-472.8,469.9C19.2,498.4,17.7,499,16.1,499z"/>
	</g>
</g>
</svg>
